<svg width="280" height="280" viewBox="0 0 280 280" fill="none" xmlns="http://www.w3.org/2000/svg"><path d="M.013 139.86c-.116 2.006 1.553 3.397 3.106 4.328 13.505 8.214 27.77 15.165 42.5 20.889-4.167 5.541-8.45 10.997-12.35 16.731-5.106 7.416-9.797 15.115-14.139 22.997-.953 1.611-1.32 3.786-.094 5.362.962 1.495 2.838 1.835 4.485 1.862 15.863.349 31.744-.775 47.427-3.187-2.425 15.827-3.58 31.864-3.16 47.874-.026 1.862.833 3.871 2.704 4.525 2.43.998 4.736-.739 6.781-1.849 27.885-15.621 52.96-36.299 73.42-60.867 10.245-11.744 16.082-27.714 14.121-43.335-1.96-15.621-16.097-33.17-16.097-33.17 8.086 24.743 9.119 36.093 2.481 47.475-6.637 11.382-20.347 18.136-33.413 16.301-9.176-1.043-17.769-6.119-23.226-13.553-3.424-4.444-5.254-9.842-6.767-15.178-2.368-8.638-2.954-17.778-1.563-26.631 1.473-9.851 5.175-19.264 10.107-27.875 6.602-11.602 15.304-21.847 24.627-31.336 10.971-11.028 22.917-21.032 35.101-30.686 1.522-1.195 2.981-2.663 3.451-4.61.649-2.149-.215-4.346-1.106-6.289-3.724-7.909-7.725-15.692-12.166-23.225-1.011-1.66-1.879-3.428-3.115-4.937-1.459-1.875-4.615-1.982-6.19-.215-1.383 1.54-2.274 3.433-3.339 5.183-7.377 12.484-13.616 25.62-18.893 39.124-5.38-4.029-10.64-8.227-16.217-11.991a268.899 268.899 0 0 0-23.508-14.506c-1.611-.954-3.777-1.303-5.362-.108-1.513.963-1.826 2.86-1.857 4.508-.359 15.862.778 31.738 3.182 47.417-15.527-2.386-31.251-3.5-46.962-3.2-.864.035-1.737.084-2.583.272-1.768.38-3.137 2.086-3.155 3.89-.058 1.32.577 2.524 1.181 3.652 4.047 7.18 8.263 14.274 12.931 21.068 4.136 6.235 8.773 12.107 13.263 18.082-14.838 5.77-29.192 12.792-42.8 21.059-1.459.895-2.976 2.269-2.806 4.149z" fill="url(#p1)"/><path d="M279.987 140.14c.116-2.006-1.553-3.397-3.106-4.328-13.504-8.214-27.769-15.165-42.5-20.889 4.167-5.541 8.451-10.997 12.349-16.73 5.107-7.417 9.798-15.116 14.14-22.998.953-1.611 1.32-3.786.094-5.362-.962-1.495-2.838-1.835-4.485-1.862-15.863-.349-31.744.775-47.427 3.187 2.426-15.827 3.58-31.864 3.16-47.874.026-1.862-.833-3.871-2.704-4.525-2.43-.998-4.736.739-6.781 1.849-27.885 15.62-52.96 36.299-73.42 60.867-10.245 11.744-16.082 27.714-14.121 43.335 1.96 15.621 16.097 33.17 16.097 33.17-8.086-24.743-9.119-36.093-2.481-47.475 6.637-11.382 20.347-18.136 33.413-16.3 9.176 1.042 17.769 6.118 23.226 13.552 3.424 4.444 5.255 9.842 6.767 15.178 2.368 8.638 2.955 17.778 1.563 26.631-1.473 9.851-5.175 19.264-10.107 27.875-6.602 11.602-15.304 21.847-24.627 31.336-10.971 11.028-22.917 21.032-35.101 30.686-1.522 1.195-2.981 2.663-3.451 4.61-.649 2.149.215 4.346 1.106 6.289 3.724 7.909 7.725 15.692 12.166 23.225 1.011 1.66 1.879 3.428 3.115 4.937 1.459 1.875 4.615 1.983 6.19.215 1.383-1.54 2.274-3.433 3.339-5.183 7.377-12.484 13.616-25.62 18.893-39.124 5.38 4.028 10.64 8.227 16.217 11.991a268.787 268.787 0 0 0 23.508 14.506c1.611.954 3.777 1.303 5.362.108 1.513-.963 1.826-2.86 1.857-4.508.358-15.862-.778-31.738-3.182-47.417 15.527 2.386 31.251 3.5 46.962 3.201.864-.036 1.737-.085 2.583-.273 1.768-.381 3.137-2.086 3.155-3.89.058-1.32-.577-2.524-1.181-3.652-4.047-7.179-8.263-14.274-12.932-21.068-4.135-6.235-8.772-12.107-13.262-18.082 14.838-5.77 29.192-12.792 42.799-21.059 1.46-.895 2.977-2.269 2.807-4.149z" fill="url(#p2)"/><defs><linearGradient id="p1" x1="82.596" x2="82.596" y2="261.539" gradientUnits="userSpaceOnUse"><stop stop-color="#00C0E8"/><stop offset="1" stop-color="#08F"/></linearGradient><linearGradient id="p2" x1="197.404" y1="280" x2="197.404" y2="18.461" gradientUnits="userSpaceOnUse"><stop stop-color="#00C0E8"/><stop offset="1" stop-color="#08F"/></linearGradient></defs></svg>
